<svg width="32" height="32" viewBox="0 0 32 32" xmlns="http://www.w3.org/2000/svg" role="img" aria-label="Pick&amp;Stats">
<title>Pick&amp;Stats</title>
<rect x="0.75" y="0.75" width="30.5" height="30.5" rx="6.75" fill="#ffffff" stroke="#e3e6eb" stroke-width="1.5"/>
<path d="M445 488Q445 395 395.0 339.0Q345 283 264 283H189Q184 283 184 278V12Q184 7 180.5 3.5Q177 0 172 0H55Q50 0 46.5 3.5Q43 7 43 12V689Q43 694 46.5 697.5Q50 701 55 701H257Q312 701 355.0 674.0Q398 647 421.5 598.5Q445 550 445 488ZM304 485Q304 529 284.5 554.0Q265 579 233 579H189Q184 579 184 574V398Q184 393 189 393H233Q265 393 284.5 417.5Q304 442 304 485Z" transform="translate(4.3,21.92) scale(0.018,-0.018)" fill="#16233a"/><path d="M570 7Q570 0 560 0H433Q424 0 418 7L394 38Q391 41 387 39Q314 -9 222 -9Q131 -9 79.0 36.0Q27 81 27 168Q27 233 55.5 278.0Q84 323 134 361Q138 364 135 368Q89 430 75.5 460.5Q62 491 62 528Q62 610 112.5 659.0Q163 708 246 708Q301 708 345.0 685.0Q389 662 414.0 620.5Q439 579 439 525Q439 463 408.0 418.5Q377 374 323 336Q318 333 322 329L349 294L380 253L396 233Q400 229 403 233Q425 262 449 307Q454 318 465 312L552 263Q562 257 557 246Q521 179 483 129Q480 126 483 122L567 15Q570 11 570 7ZM203 523Q203 505 209.0 489.5Q215 474 239 440Q242 437 246 439Q298 479 298 524Q298 549 284.5 564.5Q271 580 250 580Q228 580 215.5 564.5Q203 549 203 523ZM309 137Q313 141 310 144L282 180L220 257Q217 261 213 258Q169 219 169 179Q169 150 186.5 130.5Q204 111 237 111Q267 111 309 137Z" transform="translate(13.17,20.84) scale(0.01,-0.01)" fill="#e8622c"/><path d="M30 175V204Q30 209 33.5 212.5Q37 216 42 216H157Q162 216 165.5 212.5Q169 209 169 204V182Q169 151 185.0 132.0Q201 113 225 113Q249 113 265.0 131.0Q281 149 281 178Q281 208 261.0 229.5Q241 251 183 293Q133 329 102.0 357.0Q71 385 49.0 426.0Q27 467 27 521Q27 606 80.0 657.0Q133 708 220 708Q308 708 361.5 655.0Q415 602 415 516V492Q415 487 411.5 483.5Q408 480 403 480H288Q283 480 279.5 483.5Q276 487 276 492V519Q276 550 260.5 568.5Q245 587 220 587Q196 587 181.0 569.5Q166 552 166 521Q166 491 185.0 468.0Q204 445 260 404Q322 358 353.5 329.5Q385 301 402.5 266.5Q420 232 420 184Q420 96 366.0 44.0Q312 -8 224 -8Q166 -8 122.0 15.0Q78 38 54.0 79.5Q30 121 30 175Z" transform="translate(19.7,21.92) scale(0.018,-0.018)" fill="#16233a"/>
</svg>
